# xmcd
#
# Track frame offsets:
#	150
#	12658
#	26193
#	37718
#	49876
#	62185
#	74357
#	91667
#	101818
#	115197
#	126554
#	137881
#	148152
#	158390
#	169211
#	180679
#
# Disc length: 2578 seconds
#
# Revision: 1
# Processed by: cddbd v1.5.1PL2 Copyright (c) Steve Scherf et al.
# Submitted via: audiograbber 1.83.01
#
DISCID=e70a1010
DTITLE=Various Artist - Complete Country - Disc 3
DYEAR=2005
DGENRE=Country
TTITLE0=Glen Campbell - By The Time I Get To Phoenix
TTITLE1=Kenny Rogers - Ruby Don't Take Your Love To Town
TTITLE2=Connie Francis - My Happiness
TTITLE3=Billy Jo Spears - What Have They Done To My Song
TTITLE4=Frankie Laine - High Noon
TTITLE5=Waylon Jennings - Don't Think Twice It's Alright
TTITLE6=Glen Campbell - Southern Nights
TTITLE7=Dolly Parton - Release Me
TTITLE8=Tammy Wynette - Stand By Your Man
TTITLE9=Rick Nelson - Poor Little Fool
TTITLE10=Don Williams - Storybook Children
TTITLE11=Jo Ann Steel - One Too Many Times
TTITLE12=Ferlin Husky - Wings Of A Dove
TTITLE13=Guy Mitchell - Singing The Blues
TTITLE14=Patsy Cline - Walkin' After Midnight
TTITLE15=Slim Whitman - Tennessee Waltz
EXTD=
EXTT0=
EXTT1=
EXTT2=
EXTT3=
EXTT4=
EXTT5=
EXTT6=
EXTT7=
EXTT8=
EXTT9=
EXTT10=
EXTT11=
EXTT12=
EXTT13=
EXTT14=
EXTT15=
PLAYORDER=
